<svg width="50" height="50" viewBox="0 0 50 50" fill="none" xmlns="http://www.w3.org/2000/svg">
<g clip-path="url(#clip0)">
<path fill-rule="evenodd" clip-rule="evenodd" d="M24.9593 1.64917C30.0773 1.64917 34.959 2.12169 39.4471 2.90917C43.384 3.61789 46.376 6.61032 47.0847 10.5477C47.872 15.0364 48.3445 19.9188 48.3445 25.0374C48.3445 30.0773 47.872 34.9597 47.0847 39.4484C46.376 43.4646 43.384 46.3783 39.4471 47.087C34.959 47.8745 30.0772 48.3469 24.9593 48.3469C19.92 48.3469 15.0383 47.8745 10.4715 47.087C6.53459 46.3783 3.62127 43.4646 2.91263 39.4484C2.12526 34.9597 1.65283 30.0773 1.65283 25.0374C1.65283 19.9188 2.12526 15.0364 2.91263 10.5477C3.62128 6.61032 6.53459 3.61788 10.4715 2.90917C15.0383 2.12169 19.92 1.64917 24.9593 1.64917Z" fill="#25AFFF"/>
<path d="M24.9586 50C20.1004 50 15.1322 49.5686 10.1912 48.7168C5.52149 47.8758 2.11311 44.4357 1.28305 39.7355C0.4313 34.8739 0 29.9295 0 25.0381C0 20.0937 0.4313 15.1222 1.28306 10.2633C2.11854 5.62553 5.60966 2.10411 10.179 1.28208C20.1641 -0.444725 30.1058 -0.409455 39.7328 1.28072C44.3605 2.1136 47.8815 5.63502 48.7115 10.2552L49.1917 13.622C49.3219 14.5254 48.6925 15.3637 47.7892 15.4925C46.9131 15.6146 46.0477 14.9947 45.9202 14.0886L45.4483 10.7815C44.8732 7.59512 42.3993 5.12091 39.155 4.53762C29.9078 2.91663 20.3432 2.88679 10.7528 4.53898C7.52069 5.12091 5.13496 7.5368 4.53954 10.8412C3.72169 15.5047 3.30666 20.2836 3.30666 25.0381C3.30666 29.7383 3.72169 34.4914 4.54089 39.1631C5.12274 42.4593 7.50847 44.8739 10.7649 45.4599C20.335 47.1107 29.8969 47.0836 39.1632 45.4585C42.4617 44.8644 44.8759 42.4498 45.4564 39.1604C46.2756 34.4968 46.6906 29.7451 46.6906 25.0381V23.7779C46.6906 22.865 47.4312 22.1244 48.3453 22.1244C49.2595 22.1244 50 22.865 50 23.7779V25.0381C50 29.9363 49.566 34.8807 48.7115 39.7342C47.8977 44.3543 44.3768 47.8798 39.7409 48.7154C34.8718 49.5686 29.9023 50 24.9586 50Z" fill="#444B54"/>
<path d="M48.1093 20.7855C47.1951 20.7855 46.4546 20.0449 46.4546 19.132V18.5012C46.4546 17.5883 47.1951 16.8477 48.1093 16.8477C49.0234 16.8477 49.764 17.5883 49.764 18.5012V19.132C49.764 20.0449 49.0234 20.7855 48.1093 20.7855Z" fill="#444B54"/>
<path d="M20.2576 38.7466C16.6485 38.7466 13.0719 37.7252 9.96735 35.719C9.31497 35.2971 9.04371 34.4764 9.31768 33.748C9.59165 33.0209 10.3471 32.5774 11.1039 32.694C12.7912 32.9355 14.7917 32.2749 16.6268 31.2833C14.8392 30.2632 13.3133 28.6083 12.1713 26.4149C9.89953 22.0497 9.60657 16.4922 11.4728 13.1973C11.7414 12.7253 12.2229 12.4147 12.764 12.3658C13.2916 12.3048 13.8342 12.5354 14.1827 12.9545C16.6512 15.9171 20.0691 17.888 23.765 18.5297C23.8735 16.6116 24.7198 14.7546 26.1819 13.3642C27.6576 11.9372 29.6717 11.2088 31.7143 11.2264C33.548 11.2725 35.3166 11.9724 36.6729 13.1689L40.6848 13.3059C41.3006 13.3262 41.8567 13.6897 42.1225 14.2486C42.3856 14.8075 42.3178 15.4667 41.9435 15.9591L38.9515 19.8956C38.3954 20.6227 37.3565 20.7597 36.6349 20.2117C35.908 19.6583 35.7669 18.6205 36.3203 17.8935L37.3782 16.5031L35.9242 16.4529C35.4875 16.438 35.0725 16.2508 34.7741 15.9293C33.9603 15.0598 32.8427 14.5633 31.6302 14.5335C30.5099 14.4765 29.3136 14.9336 28.4714 15.7516C27.29 16.8734 26.8031 18.4876 27.1897 19.9757C27.3212 20.4843 27.2046 21.0256 26.8723 21.4339C26.5413 21.8408 26.0368 22.0646 25.5106 22.0429C21.1284 21.834 16.936 20.0828 13.6497 17.1501C13.3527 19.4982 13.8708 22.5177 15.1037 24.8875C16.0368 26.678 17.7376 28.8701 20.5492 29.1387C21.2233 29.2038 21.7889 29.6718 21.9788 30.3215C22.1686 30.9713 21.9435 31.6712 21.4105 32.0876C20.4502 32.8391 18.6585 34.1088 16.5115 35.0095C19.7382 35.8139 23.1615 35.5589 26.3962 34.2038C31.1853 32.2002 34.6656 28.0291 35.7018 23.0467C35.889 22.1487 36.7706 21.5817 37.6576 21.7635C38.5527 21.9507 39.1251 22.8256 38.9406 23.7195C37.682 29.7708 33.4693 34.8318 27.6711 37.2558C25.2841 38.2542 22.7627 38.7466 20.2576 38.7466Z" fill="white"/>
</g>
<defs>
<clipPath id="clip0">
<rect width="50" height="50" fill="white"/>
</clipPath>
</defs>
</svg>
