<svg width="50" height="50" viewBox="0 0 50 50" fill="none" xmlns="http://www.w3.org/2000/svg">
<g clip-path="url(#clip0)">
<path fill-rule="evenodd" clip-rule="evenodd" d="M25 1.64978C30.0474 1.64978 34.9371 2.12225 39.5114 2.90972C43.4547 3.61847 46.4516 6.61085 47.1614 10.5482C47.9501 15.0368 48.3444 19.9191 48.3444 25.0377C48.3444 30.0775 47.9501 34.9598 47.1614 39.4484C46.4516 43.4645 43.4547 46.3781 39.5114 47.0868C34.9371 47.8744 30.0474 48.3468 25 48.3468C19.9525 48.3468 15.0628 47.8744 10.4886 47.0868C6.54524 46.3781 3.62719 43.4645 2.91739 39.4484C2.04986 34.9598 1.65552 30.0775 1.65552 25.0377C1.65552 19.9191 2.04985 15.0368 2.91739 10.5482C3.62719 6.61085 6.54524 3.61847 10.4886 2.90972C15.0628 2.12225 19.9525 1.64978 25 1.64978Z" fill="#4267B2"/>
<path fill-rule="evenodd" clip-rule="evenodd" d="M32.3344 48.0317C30.1262 48.1892 27.839 48.3467 25.5519 48.3467V30.5499H19.9524V24.4864H25.5519V18.8165C25.5519 14.643 28.9432 11.2568 33.1231 11.2568H39.0381V17.3991H34.6215C33.3597 17.3991 32.3344 18.4228 32.3344 19.604V24.4864H38.8803L37.9339 30.5499H32.3344V48.0317H32.3344Z" fill="white"/>
<path d="M24.9993 50C20.1304 50 15.1528 49.5687 10.2079 48.7154C5.53185 47.8758 2.11792 44.4358 1.28515 39.7357C0.43472 35.3259 0 30.3721 0 25.0371C0 19.6506 0.43472 14.6711 1.29059 10.2355C2.122 5.6276 5.61881 2.10488 10.1956 1.28151C20.1304 -0.427625 29.8845 -0.426265 39.7921 1.28015C44.4315 2.11437 47.9595 5.63709 48.7909 10.2558L49.2746 13.6225C49.4036 14.5259 48.7746 15.3642 47.8685 15.4931C46.9773 15.6165 46.1242 14.9939 45.9951 14.0892L45.521 10.7848C44.9463 7.5958 42.4684 5.12162 39.2175 4.53699C29.7052 2.90112 20.307 2.89976 10.7703 4.53836C7.53295 5.12164 5.14333 7.53749 4.54694 10.8418C3.7264 15.0916 3.31205 19.8609 3.31205 25.0371C3.31205 30.1632 3.7264 34.9054 4.54286 39.1348C5.1311 42.4595 7.52072 44.8726 10.7825 45.4586C20.2785 47.0945 29.7093 47.0958 39.2297 45.4572C42.5309 44.8645 44.9491 42.4513 45.5291 39.1606C46.2981 34.7914 46.688 30.0384 46.688 25.0371V23.777C46.688 22.8641 47.4297 22.1235 48.344 22.1235C49.2582 22.1235 50 22.8641 50 23.777V25.0371C50 30.2297 49.5938 35.1753 48.7923 39.7343C47.9758 44.3558 44.4478 47.8799 39.8044 48.7141C34.8472 49.5687 29.8696 50 24.9993 50Z" fill="#444B54"/>
<path d="M48.1836 20.7846C47.3617 20.7846 46.6471 20.1728 46.5425 19.3359L46.4637 18.7065C46.351 17.8004 46.9949 16.9743 47.9024 16.8604C48.7922 16.7559 49.6372 17.3894 49.7513 18.2969L49.8301 18.9263C49.9429 19.8324 49.2989 20.6584 48.3915 20.7724C48.3222 20.7805 48.2529 20.7846 48.1836 20.7846Z" fill="#444B54"/>
<path d="M32.3339 49.6853C31.4196 49.6853 30.6778 48.9447 30.6778 48.0318V30.5498C30.6778 29.6369 31.4196 28.8963 32.3339 28.8963H36.5154L36.946 26.14H32.3339C31.4196 26.14 30.6778 25.3993 30.6778 24.4864V19.6045C30.6778 17.4763 32.4466 15.7454 34.6216 15.7454H37.3821V12.9104H33.1232C29.8614 12.9104 27.2082 15.5596 27.2082 18.8164V24.4864C27.2082 25.3993 26.4665 26.14 25.5522 26.14H21.6084V28.8963H25.5522C26.4665 28.8963 27.2082 29.6369 27.2082 30.5498V43.1499C27.2082 44.0628 26.4665 44.8034 25.5522 44.8034C24.6379 44.8034 23.8962 44.0628 23.8962 43.1499V32.2033H19.9524C19.0381 32.2033 18.2964 31.4627 18.2964 30.5498V24.4864C18.2964 23.5735 19.0381 22.8329 19.9524 22.8329H23.8962V18.8164C23.8962 13.7365 28.0355 9.60339 33.1232 9.60339H39.0381C39.9524 9.60339 40.6942 10.344 40.6942 11.2569V17.399C40.6942 18.3119 39.9524 19.0525 39.0381 19.0525H34.6216C34.2657 19.0525 33.9899 19.3495 33.9899 19.6046V22.8329H38.8805C39.3642 22.8329 39.8234 23.0445 40.1385 23.4108C40.4537 23.7784 40.5909 24.264 40.5175 24.7415L39.5707 30.8048C39.4443 31.6092 38.7501 32.2033 37.9337 32.2033H33.9899V48.0318C33.9899 48.9447 33.2481 49.6853 32.3339 49.6853Z" fill="#444B54"/>
</g>
<defs>
<clipPath id="clip0">
<rect width="50" height="50" fill="white"/>
</clipPath>
</defs>
</svg>
