<svg width="50" height="50" viewBox="0 0 50 50" fill="none" xmlns="http://www.w3.org/2000/svg">
<g clip-path="url(#clip0)">
<path fill-rule="evenodd" clip-rule="evenodd" d="M24.9611 1.64758C30.079 1.64758 34.9606 2.12006 39.4485 2.90755C43.3853 3.61632 46.3773 6.60878 47.0859 10.5463C47.8732 15.0349 48.3457 19.9174 48.3457 25.0361C48.3457 30.0761 47.8732 34.9585 47.0859 39.4472C46.3773 43.4634 43.3853 46.3771 39.4485 47.0859C34.9606 47.8734 30.079 48.3459 24.9611 48.3459C19.922 48.3459 15.0404 47.8734 10.5524 47.0859C6.5369 46.3771 3.62367 43.4634 2.91505 39.4472C2.1277 34.9585 1.65527 30.0761 1.65527 25.0361C1.65527 19.9174 2.12769 15.0349 2.91505 10.5463C3.62368 6.60879 6.53691 3.61632 10.5524 2.90755C15.0404 2.12006 19.922 1.64758 24.9611 1.64758Z" fill="#F3428A"/>
<path d="M24.9607 50C20.0754 50 15.1305 49.5673 10.2669 48.7154C5.55796 47.8825 2.11848 44.4425 1.28845 39.7354C0.434 34.8805 0 29.9361 0 25.0365C0 20.0853 0.434 15.1137 1.28845 10.2602C2.1212 5.61692 5.64477 2.09411 10.2642 1.27885C20.032 -0.435764 30.0792 -0.416774 39.7331 1.27885C44.3579 2.11038 47.8788 5.63319 48.7143 10.252C48.7929 10.8028 48.8797 11.2925 48.9665 11.789C49.0777 12.4157 49.189 13.0518 49.2758 13.7138C49.3978 14.6186 48.7604 15.4515 47.8544 15.5709C46.962 15.6929 46.1184 15.0567 45.999 14.1506C45.9177 13.5361 45.8119 12.9433 45.7088 12.36C45.6166 11.8283 45.5243 11.3047 45.4511 10.7797C44.8733 7.59333 42.3995 5.11908 39.1553 4.53579C29.8866 2.908 20.2327 2.88765 10.8365 4.53715C7.54897 5.11637 5.13753 7.53229 4.54349 10.8394C3.72431 15.4976 3.30929 20.2765 3.30929 25.0365C3.30929 29.7435 3.72431 34.4966 4.54349 39.1616C5.13482 42.5122 7.48929 44.8657 10.8393 45.4571C20.2436 47.1025 29.8622 47.0849 39.1635 45.4571C42.4619 44.863 44.876 42.4498 45.4592 39.1589C46.2757 34.4912 46.6907 29.7381 46.6907 25.0365V23.7763C46.6907 22.8634 47.4313 22.1227 48.3454 22.1227C49.2595 22.1227 50 22.8634 50 23.7763V25.0365C50 29.9293 49.566 34.8738 48.7143 39.7327C47.8978 44.3543 44.3742 47.8784 39.7412 48.714C34.8722 49.5673 29.9002 50 24.9607 50Z" fill="#444B54"/>
<path d="M48.1095 20.7838C47.1954 20.7838 46.4548 20.0432 46.4548 19.1303V18.4995C46.4548 17.5866 47.1954 16.8459 48.1095 16.8459C49.0236 16.8459 49.7641 17.5866 49.7641 18.4995V19.1303C49.7641 20.0432 49.0236 20.7838 48.1095 20.7838Z" fill="#444B54"/>
<path d="M32.3631 41.2587H17.6395C12.7326 41.2587 8.73975 37.2666 8.73975 32.3602V17.6341C8.73975 12.7276 12.7326 8.73547 17.6395 8.73547H32.3631C37.2674 8.73547 41.2602 12.7276 41.2602 17.6341V32.3602C41.2602 37.2666 37.2674 41.2587 32.3631 41.2587ZM17.6395 12.0426C14.5554 12.0426 12.049 14.5508 12.049 17.6341V32.3601C12.049 35.4435 14.5554 37.9516 17.6395 37.9516H32.3631C35.4446 37.9516 37.9509 35.4434 37.9509 32.3601V17.6341C37.9509 14.5508 35.4446 12.0426 32.3631 12.0426H17.6395V12.0426Z" fill="white"/>
<path d="M24.9607 33.4617C20.3603 33.4617 16.6143 29.6825 16.6143 25.0365C16.6143 20.3905 20.3603 16.61 24.9607 16.61C29.6832 16.61 33.3858 20.3119 33.3858 25.0365C33.3858 29.6825 29.6045 33.4617 24.9607 33.4617ZM24.9607 19.9171C22.1342 19.9171 19.9235 22.1662 19.9235 25.0365C19.9235 27.858 22.1831 30.1546 24.9607 30.1546C27.7817 30.1546 30.0765 27.858 30.0765 25.0365C30.0765 22.1662 27.8305 19.9171 24.9607 19.9171Z" fill="white"/>
<path fill-rule="evenodd" clip-rule="evenodd" d="M33.622 18.2638C34.6455 18.2638 35.5116 17.3975 35.5116 16.3737C35.5116 15.35 34.6455 14.4838 33.622 14.4838C32.5984 14.4838 31.811 15.35 31.811 16.3737C31.811 17.3975 32.5984 18.2638 33.622 18.2638Z" fill="white"/>
</g>
<defs>
<clipPath id="clip0">
<rect width="50" height="50" fill="white"/>
</clipPath>
</defs>
</svg>
