<svg viewBox="0 0 1211 384" fill="none" xmlns="http://www.w3.org/2000/svg">
<path d="M177.981 171.812V200.797C177.981 231.83 154.56 257.075 125.717 257.075C96.9132 257.075 73.4926 231.832 73.4926 200.797V171.812H83.358C88.5917 171.812 92.8838 167.205 92.8838 161.533C92.8838 155.862 88.5917 151.255 83.358 151.255H73.4926V98.3644H83.358C88.5917 98.3644 92.8838 93.7574 92.8838 88.0849C92.8838 82.4124 88.5917 77.8053 83.358 77.8053H73.8322C76.6945 49.6858 98.8723 27.7104 125.719 27.7104C152.604 27.7104 174.782 49.6858 177.643 77.8053H167.665C162.394 77.8053 158.139 82.4138 158.139 88.0849C158.139 93.7559 162.394 98.3644 167.665 98.3644H177.982V151.255H167.665C162.394 151.255 158.139 155.862 158.139 161.533C158.139 167.204 162.394 171.812 167.665 171.812H177.981Z" fill="#4EFFBB"/>
<path d="M17.9663 205.331C12.2198 205.331 7.84938 210.592 8.47078 216.567C10.0339 231.583 14.0702 245.801 20.1206 258.749C21.736 262.21 25.0794 264.427 28.7624 264.427H28.849C35.8906 264.427 40.5703 256.708 37.4455 250.111C32.2461 239.147 28.7817 227.076 27.4481 214.325C26.9161 209.225 22.8715 205.331 17.9663 205.331Z" fill="#4EFFBB"/>
<path d="M231.675 120.261H197.072V83.9901C197.071 41.6138 165.066 7.15457 125.717 7.15457C86.407 7.15457 54.4009 41.6138 54.4009 83.9901V120.261H17.2752C12.0044 120.261 7.71094 124.829 7.71094 130.541V189.233C7.71094 194.746 11.9851 199.216 17.256 199.216C22.5269 199.216 26.801 194.746 26.801 189.233V140.819H54.4009V200.798C54.4009 243.134 86.407 277.633 125.717 277.633C165.065 277.633 197.071 243.134 197.071 200.798V140.819H222.111V202.53C222.111 260.501 178.32 307.681 124.476 307.681C96.2545 307.681 70.7937 294.717 52.9533 274.033C51.0781 271.859 48.4647 270.543 45.6643 270.543C37.384 270.543 32.8734 280.807 38.3752 287.277C57.7183 310.032 84.716 325.124 114.951 327.767V363.093H86.6366C81.3657 363.093 77.1108 367.662 77.1108 373.371C77.1108 379.043 81.3657 383.651 86.6366 383.651H161.039C166.31 383.651 170.604 379.044 170.604 373.371C170.604 367.662 166.312 363.093 161.039 363.093H134.004V327.767C193.949 322.529 241.204 268.379 241.204 202.53V130.539C241.201 124.829 236.946 120.261 231.675 120.261ZM177.981 151.255H167.663C162.392 151.255 158.137 155.862 158.137 161.533C158.137 167.204 162.392 171.813 167.663 171.813L177.981 171.812V200.797C177.981 231.83 154.56 257.075 125.717 257.075C96.9132 257.075 73.4926 231.832 73.4926 200.797V171.812H83.358C88.5917 171.812 92.8838 167.205 92.8838 161.533C92.8838 155.862 88.5917 151.255 83.358 151.255H73.4926V98.3644H83.358C88.5917 98.3644 92.8838 93.7574 92.8838 88.0849C92.8838 82.4124 88.5917 77.8053 83.358 77.8053H73.8322C76.6945 49.6858 98.8723 27.7104 125.719 27.7104C152.604 27.7104 174.782 49.6858 177.643 77.8053H167.665C162.394 77.8053 158.139 82.4138 158.139 88.0849C158.139 93.7559 162.394 98.3644 167.665 98.3644H177.982L177.981 151.255Z" fill="#4EFFBB"/>
<path d="M170.27 164.658V193.643C170.27 224.676 146.849 249.921 118.007 249.921C89.2023 249.921 65.7817 224.677 65.7817 193.643V164.658H75.647C80.8808 164.658 85.1728 160.051 85.1728 154.378C85.1728 148.707 80.8808 144.1 75.647 144.1H65.7817V91.2099H75.647C80.8808 91.2099 85.1728 86.6028 85.1728 80.9303C85.1728 75.2578 80.8808 70.6508 75.647 70.6508H66.1212C68.9835 42.5312 91.1614 20.5558 118.008 20.5558C144.893 20.5558 167.071 42.5312 169.932 70.6508H159.954C154.683 70.6508 150.428 75.2592 150.428 80.9303C150.428 86.6014 154.683 91.2099 159.954 91.2099H170.271V144.1H159.954C154.683 144.1 150.428 148.707 150.428 154.378C150.428 160.049 154.683 164.658 159.954 164.658H170.27Z" fill="#242143"/>
<path d="M10.2554 198.176C4.50885 198.176 0.138443 203.438 0.75984 209.412C2.32296 224.428 6.35929 238.646 12.4097 251.594C14.025 255.055 17.3685 257.273 21.0515 257.273H21.1381C28.1797 257.273 32.8594 249.554 29.7345 242.957C24.5352 231.993 21.0707 219.922 19.7372 207.17C19.2052 202.07 15.1606 198.176 10.2554 198.176Z" fill="#242143"/>
<path d="M223.964 113.107H189.361V76.8355C189.36 34.4592 157.355 0 118.006 0C78.6961 0 46.69 34.4592 46.69 76.8355V113.107H9.56429C4.29341 113.107 0 117.675 0 123.386V182.078C0 187.591 4.27417 192.062 9.54504 192.062C14.8159 192.062 19.0901 187.591 19.0901 182.078V133.664H46.69V193.643C46.69 235.979 78.6961 270.479 118.006 270.479C157.354 270.479 189.36 235.979 189.36 193.643V133.664H214.4V195.376C214.4 253.346 170.609 300.527 116.765 300.527C88.5436 300.527 63.0828 287.562 45.2424 266.878C43.3672 264.704 40.7538 263.389 37.9533 263.389C29.6731 263.389 25.1625 273.652 30.6643 280.123C50.0073 302.878 77.0051 317.97 107.24 320.613V355.939H78.9257C73.6548 355.939 69.3999 360.507 69.3999 366.217C69.3999 371.888 73.6548 376.497 78.9257 376.497H153.328C158.599 376.497 162.893 371.889 162.893 366.217C162.893 360.507 158.601 355.939 153.328 355.939H126.293V320.613C186.238 315.374 233.493 261.224 233.493 195.376V123.385C233.49 117.675 229.235 113.107 223.964 113.107ZM170.27 144.1H159.952C154.681 144.1 150.426 148.707 150.426 154.379C150.426 160.05 154.681 164.658 159.952 164.658L170.27 164.658V193.643C170.27 224.676 146.849 249.921 118.007 249.921C89.2023 249.921 65.7817 224.677 65.7817 193.643V164.658H75.647C80.8808 164.658 85.1728 160.051 85.1728 154.378C85.1728 148.707 80.8808 144.1 75.647 144.1H65.7817V91.2099H75.647C80.8808 91.2099 85.1728 86.6028 85.1728 80.9303C85.1728 75.2578 80.8808 70.6508 75.647 70.6508H66.1212C68.9835 42.5312 91.1614 20.5558 118.008 20.5558C144.893 20.5558 167.071 42.5312 169.932 70.6508H159.954C154.683 70.6508 150.428 75.2592 150.428 80.9303C150.428 86.6014 154.683 91.2099 159.954 91.2099H170.271L170.27 144.1Z" fill="#242143"/>
<path d="M171.922 165.208V194.193C171.922 225.226 148.501 250.471 119.658 250.471C90.8542 250.471 67.4336 225.227 67.4336 194.193V165.208H77.299C82.5327 165.208 86.8248 160.601 86.8248 154.928C86.8248 149.257 82.5327 144.65 77.299 144.65H67.4336V91.7602H77.299C82.5327 91.7602 86.8248 87.1532 86.8248 81.4807C86.8248 75.8082 82.5327 71.2011 77.299 71.2011H67.7732C70.6354 43.0816 92.8133 21.1062 119.66 21.1062C146.545 21.1062 168.723 43.0816 171.584 71.2011H161.605C156.335 71.2011 152.08 75.8096 152.08 81.4807C152.08 87.1517 156.335 91.7602 161.605 91.7602H171.923V144.65H161.605C156.335 144.65 152.08 149.257 152.08 154.928C152.08 160.6 156.335 165.208 161.605 165.208H171.922Z" fill="#7B72D3"/>
<g filter="url(#filter0_d)">
<path d="M288.769 163.52C285.738 163.52 282.889 162.795 280.222 161.344C277.676 159.894 276.403 157.719 276.403 154.818V39.5204C276.403 36.499 277.857 34.3236 280.767 32.9941C283.798 31.6647 287.072 31 290.588 31C294.103 31 297.316 31.6647 300.226 32.9941C303.257 34.3236 304.772 36.499 304.772 39.5204V138.865H346.236C349.025 138.865 351.086 140.134 352.419 142.672C353.753 145.21 354.42 148.05 354.42 151.192C354.42 154.214 353.753 157.054 352.419 159.713C351.086 162.251 349.025 163.52 346.236 163.52H288.769Z" fill="#242143"/>
<path d="M414.332 164.608C405.966 164.608 398.389 163.218 391.6 160.438C384.932 157.658 379.597 153.126 375.596 146.842C371.717 140.557 369.777 132.218 369.777 121.824V73.7834C369.777 63.3897 371.717 55.0506 375.596 48.766C379.597 42.4814 384.932 37.9493 391.6 35.1696C398.389 32.3899 405.966 31 414.332 31C422.697 31 430.275 32.3899 437.064 35.1696C443.854 37.9493 449.188 42.4814 453.068 48.766C457.069 55.0506 459.069 63.3897 459.069 73.7834V121.824C459.069 132.218 457.069 140.557 453.068 146.842C449.188 153.126 443.854 157.658 437.064 160.438C430.275 163.218 422.697 164.608 414.332 164.608ZM414.332 139.953C419.424 139.953 423.425 138.502 426.335 135.602C429.244 132.701 430.699 128.109 430.699 121.824V73.7834C430.699 67.4989 429.244 62.9063 426.335 60.0057C423.425 57.1051 419.424 55.6549 414.332 55.6549C409.24 55.6549 405.239 57.1051 402.329 60.0057C399.541 62.9063 398.147 67.4989 398.147 73.7834V121.824C398.147 128.109 399.541 132.701 402.329 135.602C405.239 138.502 409.24 139.953 414.332 139.953Z" fill="#242143"/>
<path d="M526.722 164.608C518.841 164.608 511.567 163.218 504.899 160.438C498.231 157.658 492.896 153.126 488.895 146.842C485.016 140.557 483.076 132.218 483.076 121.824V73.7834C483.076 63.3897 485.016 55.0506 488.895 48.766C492.896 42.4814 498.231 37.9493 504.899 35.1696C511.567 32.3899 518.841 31 526.722 31C535.451 31 543.21 32.4503 549.999 35.3509C556.91 38.1306 562.366 42.1793 566.367 47.497C570.368 52.8147 572.368 59.341 572.368 67.0759C572.368 72.5144 571.216 76.1402 568.913 77.953C566.609 79.645 563.033 80.491 558.183 80.491C554.425 80.491 551.151 79.8867 548.363 78.6782C545.695 77.4696 544.241 75.2337 543.998 71.9706C543.998 70.762 543.816 69.2513 543.453 67.4384C543.21 65.6256 542.604 63.8127 541.634 61.9999C540.664 60.187 539.088 58.6763 536.906 57.4677C534.723 56.2591 531.692 55.6549 527.813 55.6549C522.6 55.6549 518.538 57.1656 515.628 60.187C512.84 63.0876 511.446 67.6197 511.446 73.7834V121.824C511.446 127.988 512.9 132.58 515.81 135.602C518.72 138.502 522.781 139.953 527.995 139.953C532.844 139.953 536.36 138.925 538.542 136.871C540.725 134.816 542.119 132.399 542.725 129.619C543.453 126.719 543.877 124.12 543.998 121.824C544.241 118.44 545.695 116.204 548.363 115.117C551.151 113.908 554.364 113.304 558.001 113.304C562.972 113.304 566.609 114.21 568.913 116.023C571.216 117.715 572.368 121.28 572.368 126.719C572.368 134.695 570.368 141.524 566.367 147.204C562.366 152.884 556.91 157.235 549.999 160.257C543.21 163.157 535.451 164.608 526.722 164.608Z" fill="#242143"/>
<path d="M608.107 163.52C604.591 163.52 601.318 162.795 598.287 161.344C595.377 159.894 593.922 157.719 593.922 154.818V39.5204C593.922 36.499 595.377 34.3236 598.287 32.9941C601.318 31.6647 604.591 31 608.107 31C611.623 31 614.836 31.6647 617.746 32.9941C620.777 34.3236 622.292 36.499 622.292 39.5204V83.029L656.3 34.9883C658.118 32.3294 660.604 31 663.756 31C666.181 31 668.666 31.7251 671.212 33.1754C673.879 34.6257 676.062 36.4386 677.759 38.614C679.578 40.7894 680.487 43.0857 680.487 45.5029C680.487 46.228 680.366 47.074 680.123 48.0409C679.881 49.0077 679.396 49.9746 678.668 50.9414L648.844 88.2863L686.488 145.754C687.458 147.325 687.943 148.896 687.943 150.467C687.943 152.764 687.094 154.999 685.397 157.175C683.7 159.35 681.517 161.163 678.85 162.613C676.304 163.943 673.637 164.608 670.848 164.608C668.909 164.608 667.09 164.245 665.393 163.52C663.695 162.674 662.24 161.284 661.028 159.35L629.93 112.216L622.292 122.005V154.818C622.292 157.719 620.777 159.894 617.746 161.344C614.836 162.795 611.623 163.52 608.107 163.52Z" fill="#242143"/>
<path d="M716.569 163.52C712.81 163.52 709.779 162.674 707.476 160.982C705.293 159.29 704.202 157.296 704.202 154.999V39.5204C704.202 37.2241 705.293 35.23 707.476 33.538C709.779 31.846 712.81 31 716.569 31H748.758C757.123 31 764.7 32.3899 771.49 35.1696C778.279 37.9493 783.614 42.4814 787.493 48.766C791.494 55.0506 793.495 63.3897 793.495 73.7834V120.736C793.495 131.13 791.494 139.469 787.493 145.754C783.614 152.038 778.279 156.571 771.49 159.35C764.7 162.13 757.123 163.52 748.758 163.52H716.569ZM732.572 138.865H748.758C753.85 138.865 757.85 137.415 760.76 134.514C763.67 131.493 765.125 126.9 765.125 120.736V73.7834C765.125 67.6197 763.67 63.0876 760.76 60.187C757.85 57.1656 753.85 55.6549 748.758 55.6549H732.572V138.865Z" fill="#242143"/>
<path d="M861.845 164.608C853.479 164.608 845.902 163.218 839.113 160.438C832.444 157.658 827.11 153.126 823.109 146.842C819.229 140.557 817.29 132.218 817.29 121.824V73.7834C817.29 63.3897 819.229 55.0506 823.109 48.766C827.11 42.4814 832.444 37.9493 839.113 35.1696C845.902 32.3899 853.479 31 861.845 31C870.21 31 877.788 32.3899 884.577 35.1696C891.366 37.9493 896.701 42.4814 900.581 48.766C904.581 55.0506 906.582 63.3897 906.582 73.7834V121.824C906.582 132.218 904.581 140.557 900.581 146.842C896.701 153.126 891.366 157.658 884.577 160.438C877.788 163.218 870.21 164.608 861.845 164.608ZM861.845 139.953C866.937 139.953 870.938 138.502 873.847 135.602C876.757 132.701 878.212 128.109 878.212 121.824V73.7834C878.212 67.4989 876.757 62.9063 873.847 60.0057C870.938 57.1051 866.937 55.6549 861.845 55.6549C856.753 55.6549 852.752 57.1051 849.842 60.0057C847.054 62.9063 845.659 67.4989 845.659 73.7834V121.824C845.659 128.109 847.054 132.701 849.842 135.602C852.752 138.502 856.753 139.953 861.845 139.953Z" fill="#242143"/>
<path d="M978.054 164.608C973.931 164.608 969.991 163.822 966.233 162.251C962.596 160.68 960.292 158.323 959.322 155.181L923.132 44.5964C922.89 43.8713 922.769 43.0857 922.769 42.2397C922.769 40.1851 923.739 38.3119 925.678 36.6199C927.618 34.9279 929.982 33.5984 932.771 32.6316C935.681 31.5439 938.469 31 941.136 31C943.319 31 945.258 31.423 946.956 32.269C948.653 32.9941 949.744 34.3236 950.229 36.2573L977.872 129.257L992.238 67.9823C992.845 65.5651 994.481 63.7523 997.149 62.5437C999.937 61.2143 1002.85 60.5496 1005.88 60.5496C1009.03 60.5496 1011.94 61.2143 1014.61 62.5437C1017.4 63.7523 1019.03 65.5651 1019.52 67.9823L1033.88 129.257L1061.53 36.2573C1062.13 34.3236 1063.22 32.9941 1064.8 32.269C1066.5 31.423 1068.44 31 1070.62 31C1073.41 31 1076.2 31.5439 1078.98 32.6316C1081.77 33.5984 1084.14 34.9279 1086.08 36.6199C1088.02 38.3119 1088.99 40.1851 1088.99 42.2397C1088.99 43.0857 1088.87 43.8713 1088.62 44.5964L1052.43 155.181C1051.34 158.323 1048.98 160.68 1045.34 162.251C1041.83 163.822 1037.95 164.608 1033.7 164.608C1029.58 164.608 1025.64 163.822 1021.88 162.251C1018.24 160.68 1016.06 158.323 1015.33 155.181L1005.88 112.216L996.421 155.181C995.694 158.323 993.451 160.68 989.692 162.251C986.055 163.822 982.176 164.608 978.054 164.608Z" fill="#242143"/>
<path d="M1120.8 163.52C1117.28 163.52 1114.01 162.795 1110.98 161.344C1108.07 159.894 1106.61 157.719 1106.61 154.818V39.7017C1106.61 36.6803 1108.07 34.5049 1110.98 33.1754C1114.01 31.7251 1117.28 31 1120.8 31C1124.19 31 1126.98 31.3021 1129.16 31.9064C1131.47 32.3899 1133.53 33.5984 1135.35 35.5321C1137.29 37.4659 1139.41 40.6686 1141.71 45.1403L1171.17 101.158V39.5204C1171.17 36.499 1172.63 34.3236 1175.54 32.9941C1178.57 31.6647 1181.84 31 1185.36 31C1188.87 31 1192.09 31.6647 1195 32.9941C1198.03 34.3236 1199.54 36.499 1199.54 39.5204V154.818C1199.54 157.719 1198.03 159.894 1195 161.344C1192.09 162.795 1188.87 163.52 1185.36 163.52C1182.08 163.52 1179.05 163.036 1176.26 162.07C1173.48 161.103 1171.23 159.048 1169.54 155.906L1134.98 93.181V154.818C1134.98 157.719 1133.47 159.894 1130.44 161.344C1127.53 162.795 1124.31 163.52 1120.8 163.52Z" fill="#242143"/>
<path d="M309.462 351C302.794 351 296.793 349.791 291.458 347.374C286.124 344.836 281.881 340.848 278.728 335.409C275.576 329.971 274 322.719 274 313.655V254.737C274 245.673 275.576 238.422 278.728 232.983C281.881 227.544 286.124 223.617 291.458 221.199C296.793 218.661 302.794 217.392 309.462 217.392C316.13 217.392 322.132 218.661 327.466 221.199C332.922 223.617 337.226 227.544 340.378 232.983C343.53 238.422 345.106 245.673 345.106 254.737V313.655C345.106 322.719 343.53 329.971 340.378 335.409C337.226 340.848 332.922 344.836 327.466 347.374C322.132 349.791 316.13 351 309.462 351ZM309.462 344.474C318.555 344.474 325.648 341.996 330.74 337.041C335.953 331.965 338.56 324.17 338.56 313.655V254.737C338.56 244.223 335.953 236.488 330.74 231.533C325.648 226.457 318.555 223.919 309.462 223.919C300.369 223.919 293.277 226.457 288.185 231.533C283.093 236.488 280.547 244.223 280.547 254.737V313.655C280.547 324.17 283.093 331.965 288.185 337.041C293.277 341.996 300.369 344.474 309.462 344.474Z" fill="#242143"/>
<path d="M417.298 349.912C416.45 349.912 415.662 349.671 414.934 349.187C414.328 348.583 414.025 347.737 414.025 346.649V220.474C414.025 219.628 414.328 218.964 414.934 218.48C415.54 217.876 416.329 217.513 417.298 217.392H449.487C456.155 217.392 462.157 218.661 467.491 221.199C472.947 223.617 477.251 227.544 480.403 232.983C483.555 238.422 485.132 245.673 485.132 254.737V256.913C485.132 265.977 483.555 273.289 480.403 278.848C477.251 284.287 472.947 288.275 467.491 290.813C462.157 293.23 456.155 294.439 449.487 294.439H420.572V346.649C420.572 347.737 420.208 348.583 419.481 349.187C418.875 349.671 418.147 349.912 417.298 349.912ZM420.572 287.913H449.487C458.58 287.913 465.673 285.375 470.765 280.299C475.978 275.223 478.585 267.427 478.585 256.913V254.737C478.585 244.223 475.978 236.488 470.765 231.533C465.673 226.457 458.58 223.919 449.487 223.919H420.572V287.913Z" fill="#242143"/>
<path d="M550.545 349.912C549.696 349.912 548.908 349.671 548.181 349.187C547.575 348.583 547.272 347.737 547.272 346.649V220.656C547.272 219.568 547.575 218.782 548.181 218.299C548.908 217.695 549.696 217.392 550.545 217.392H615.286C616.378 217.392 617.166 217.755 617.651 218.48C618.136 219.084 618.378 219.749 618.378 220.474C618.378 221.32 618.075 222.106 617.469 222.831C616.984 223.556 616.256 223.919 615.286 223.919H553.818V280.299H582.916C583.886 280.299 584.613 280.661 585.098 281.386C585.704 281.991 586.007 282.776 586.007 283.743C586.007 284.468 585.765 285.193 585.28 285.918C584.795 286.523 584.007 286.825 582.916 286.825H553.818V343.386H615.286C616.256 343.386 616.984 343.749 617.469 344.474C618.075 345.078 618.378 345.864 618.378 346.83C618.378 347.556 618.136 348.281 617.651 349.006C617.166 349.61 616.378 349.912 615.286 349.912H550.545Z" fill="#242143"/>
<path d="M681.128 349.912C680.279 349.912 679.491 349.671 678.763 349.187C678.157 348.583 677.854 347.737 677.854 346.649V220.474C677.854 219.266 678.157 218.48 678.763 218.118C679.491 217.634 680.279 217.392 681.128 217.392C681.976 217.392 682.764 217.815 683.492 218.661C684.219 219.507 684.886 220.474 685.492 221.562C686.098 222.529 686.523 223.314 686.765 223.919L742.414 333.778V220.474C742.414 219.387 742.717 218.601 743.323 218.118C744.051 217.634 744.839 217.392 745.687 217.392C746.536 217.392 747.263 217.634 747.87 218.118C748.597 218.601 748.961 219.387 748.961 220.474V346.649C748.961 347.737 748.597 348.583 747.87 349.187C747.263 349.671 746.536 349.912 745.687 349.912C744.475 349.912 743.444 349.127 742.596 347.556C741.747 345.984 741.02 344.595 740.413 343.386L684.401 233.346V346.649C684.401 347.737 684.037 348.583 683.31 349.187C682.704 349.671 681.976 349.912 681.128 349.912Z" fill="#242143"/>
<path d="M898.782 349.912C897.933 349.912 897.145 349.671 896.418 349.187C895.812 348.583 895.508 347.737 895.508 346.649V220.474C895.508 219.266 895.812 218.48 896.418 218.118C897.145 217.634 897.933 217.392 898.782 217.392C899.631 217.392 900.419 217.815 901.146 218.661C901.873 219.507 902.54 220.474 903.146 221.562C903.753 222.529 904.177 223.314 904.419 223.919L939.7 293.17L975.162 223.919C975.526 223.314 975.95 222.529 976.435 221.562C977.042 220.474 977.708 219.507 978.436 218.661C979.284 217.815 980.072 217.392 980.8 217.392C981.77 217.392 982.558 217.634 983.164 218.118C983.77 218.48 984.073 219.266 984.073 220.474V346.649C984.073 347.737 983.71 348.583 982.982 349.187C982.376 349.671 981.648 349.912 980.8 349.912C979.951 349.912 979.163 349.671 978.436 349.187C977.83 348.583 977.526 347.737 977.526 346.649V233.346L943.155 299.334C942.549 300.542 941.943 301.449 941.337 302.053C940.852 302.536 940.306 302.778 939.7 302.778C939.215 302.778 938.669 302.536 938.063 302.053C937.457 301.449 936.851 300.542 936.245 299.334L902.055 233.346V346.649C902.055 347.737 901.692 348.583 900.964 349.187C900.358 349.671 899.631 349.912 898.782 349.912Z" fill="#242143"/>
<path d="M1057.6 349.912C1056.75 349.912 1055.97 349.671 1055.24 349.187C1054.63 348.583 1054.33 347.737 1054.33 346.649V220.474C1054.33 219.387 1054.63 218.601 1055.24 218.118C1055.97 217.634 1056.75 217.392 1057.6 217.392C1058.45 217.392 1059.18 217.634 1059.78 218.118C1060.51 218.601 1060.88 219.387 1060.88 220.474V346.649C1060.88 347.737 1060.51 348.583 1059.78 349.187C1059.18 349.671 1058.45 349.912 1057.6 349.912Z" fill="#242143"/>
<path d="M1165.47 351C1159.05 351 1153.1 349.791 1147.65 347.374C1142.19 344.836 1137.83 340.848 1134.56 335.409C1131.4 329.971 1129.83 322.719 1129.83 313.655V254.737C1129.83 245.673 1131.46 238.422 1134.74 232.983C1138.13 227.544 1142.56 223.617 1148.01 221.199C1153.47 218.661 1159.47 217.392 1166.02 217.392C1173.78 217.392 1180.2 218.782 1185.29 221.562C1190.51 224.342 1194.39 227.907 1196.93 232.258C1199.6 236.609 1200.93 241.141 1200.93 245.854C1200.93 247.909 1200.63 249.299 1200.02 250.024C1199.54 250.628 1198.75 250.93 1197.66 250.93C1196.08 250.93 1195.11 250.568 1194.75 249.843C1194.51 248.997 1194.39 248.271 1194.39 247.667C1194.27 245.492 1193.78 243.075 1192.93 240.416C1192.2 237.636 1190.81 235.038 1188.75 232.62C1186.81 230.082 1183.96 228.028 1180.2 226.457C1176.56 224.765 1171.78 223.919 1165.83 223.919C1156.26 223.919 1148.92 226.457 1143.83 231.533C1138.86 236.488 1136.37 244.223 1136.37 254.737V313.655C1136.37 324.291 1138.92 332.086 1144.01 337.041C1149.1 341.996 1156.62 344.474 1166.56 344.474C1172.62 344.474 1177.41 343.688 1180.93 342.117C1184.44 340.546 1187.11 338.552 1188.93 336.135C1190.75 333.717 1192.02 331.119 1192.75 328.339C1193.48 325.56 1194.02 323.022 1194.39 320.725C1194.51 319.879 1194.75 319.154 1195.11 318.55C1195.48 317.825 1196.33 317.462 1197.66 317.462C1198.75 317.462 1199.54 317.825 1200.02 318.55C1200.63 319.275 1200.93 320.665 1200.93 322.719C1200.93 327.312 1199.6 331.784 1196.93 336.135C1194.27 340.485 1190.26 344.051 1184.93 346.83C1179.72 349.61 1173.23 351 1165.47 351Z" fill="#242143"/>
</g>
<defs>
<filter id="filter0_d" x="274" y="31" width="936.933" height="330" filterUnits="userSpaceOnUse" color-interpolation-filters="sRGB">
<feFlood flood-opacity="0" result="BackgroundImageFix"/>
<feColorMatrix in="SourceAlpha" type="matrix" values="0 0 0 0 0 0 0 0 0 0 0 0 0 0 0 0 0 0 127 0"/>
<feOffset dx="10" dy="10"/>
<feColorMatrix type="matrix" values="0 0 0 0 0.305882 0 0 0 0 1 0 0 0 0 0.733333 0 0 0 1 0"/>
<feBlend mode="normal" in2="BackgroundImageFix" result="effect1_dropShadow"/>
<feBlend mode="normal" in="SourceGraphic" in2="effect1_dropShadow" result="shape"/>
</filter>
</defs>
</svg>
